<?xml version="1.0" encoding="UTF-8"?>
<!--
  FICSIT gear favicon. Same brand mark used at the top of the nav drawer
  (src/Web/Components/Layout/NavMenu.razor). One SVG so tab icon, bookmark,
  and drawer brand all share one asset. Brand orange on transparent.
-->
<svg xmlns="http://www.w3.org/2000/svg" viewBox="0 0 24 24" width="32" height="32">
  <path fill="#FA9549" d="M12 8a4 4 0 1 0 0 8 4 4 0 0 0 0-8zm0 2a2 2 0 1 1 0 4 2 2 0 0 1 0-4zM11 1l-.5 2.6a8.8 8.8 0 0 0-2.3 1L6 3.2 3.2 6l1.4 2.2c-.5.7-.8 1.5-1 2.3L1 11v2l2.6.5c.2.8.5 1.6 1 2.3L3.2 18 6 20.8l2.2-1.4c.7.5 1.5.8 2.3 1L11 23h2l.5-2.6c.8-.2 1.6-.5 2.3-1l2.2 1.4L20.8 18l-1.4-2.2c.5-.7.8-1.5 1-2.3L23 13v-2l-2.6-.5a8.8 8.8 0 0 0-1-2.3L20.8 6 18 3.2l-2.2 1.4c-.7-.5-1.5-.8-2.3-1L13 1h-2z"/>
</svg>
